<svg xmlns="http://www.w3.org/2000/svg" xmlns:xlink="http://www.w3.org/1999/xlink"><symbol viewBox="0 0 16 16" id="arrow-left"><path d="M15 8a.5.5 0 0 0-.5-.5H2.707l3.147-3.146a.5.5 0 1 0-.708-.708l-4 4a.5.5 0 0 0 0 .708l4 4a.5.5 0 0 0 .708-.708L2.707 8.5H14.5A.5.5 0 0 0 15 8"/></symbol><symbol class="bi bi-arrow-right" viewBox="0 0 16 16" id="arrow-right"><path fill-rule="evenodd" d="M1 8a.5.5 0 0 1 .5-.5h11.793l-3.147-3.146a.5.5 0 0 1 .708-.708l4 4a.5.5 0 0 1 0 .708l-4 4a.5.5 0 0 1-.708-.708L13.293 8.5H1.5A.5.5 0 0 1 1 8"/></symbol><symbol class="bi bi-arrow-up-square" viewBox="0 0 16 16" id="arrow-up-square"><path fill-rule="evenodd" d="M15 2a1 1 0 0 0-1-1H2a1 1 0 0 0-1 1v12a1 1 0 0 0 1 1h12a1 1 0 0 0 1-1zM0 2a2 2 0 0 1 2-2h12a2 2 0 0 1 2 2v12a2 2 0 0 1-2 2H2a2 2 0 0 1-2-2zm8.5 9.5a.5.5 0 0 1-1 0V5.707L5.354 7.854a.5.5 0 1 1-.708-.708l3-3a.5.5 0 0 1 .708 0l3 3a.5.5 0 0 1-.708.708L8.5 5.707z"/></symbol><symbol class="bi bi-backpack-fill" viewBox="0 0 16 16" id="backpack"><path d="M5 13v-3h4v.5a.5.5 0 0 0 1 0V10h1v3z"/><path d="M6 2v.341C3.67 3.165 2 5.388 2 8v5.5A2.5 2.5 0 0 0 4.5 16h7a2.5 2.5 0 0 0 2.5-2.5V8a6 6 0 0 0-4-5.659V2a2 2 0 1 0-4 0m2-1a1 1 0 0 1 1 1v.083a6 6 0 0 0-2 0V2a1 1 0 0 1 1-1m0 3a4 4 0 0 1 3.96 3.43.5.5 0 1 1-.99.14 3 3 0 0 0-5.94 0 .5.5 0 1 1-.99-.14A4 4 0 0 1 8 4M4.5 9h7a.5.5 0 0 1 .5.5v4a.5.5 0 0 1-.5.5h-7a.5.5 0 0 1-.5-.5v-4a.5.5 0 0 1 .5-.5"/></symbol><symbol class="bi bi-check-square" viewBox="0 0 16 16" id="check-square"><path d="M14 1a1 1 0 0 1 1 1v12a1 1 0 0 1-1 1H2a1 1 0 0 1-1-1V2a1 1 0 0 1 1-1zM2 0a2 2 0 0 0-2 2v12a2 2 0 0 0 2 2h12a2 2 0 0 0 2-2V2a2 2 0 0 0-2-2z"/><path d="M10.97 4.97a.75.75 0 0 1 1.071 1.05l-3.992 4.99a.75.75 0 0 1-1.08.02L4.324 8.384a.75.75 0 1 1 1.06-1.06l2.094 2.093 3.473-4.425z"/></symbol><symbol class="bi bi-x-lg" viewBox="0 0 16 16" id="close"><path d="M2.146 2.854a.5.5 0 1 1 .708-.708L8 7.293l5.146-5.147a.5.5 0 0 1 .708.708L8.707 8l5.147 5.146a.5.5 0 0 1-.708.708L8 8.707l-5.146 5.147a.5.5 0 0 1-.708-.708L7.293 8z"/></symbol><symbol class="bi bi-cup-hot" viewBox="0 0 16 16" id="cup-hot"><path fill-rule="evenodd" d="M.5 6a.5.5 0 0 0-.488.608l1.652 7.434A2.5 2.5 0 0 0 4.104 16h5.792a2.5 2.5 0 0 0 2.44-1.958l.131-.59a3 3 0 0 0 1.3-5.854l.221-.99A.5.5 0 0 0 13.5 6zM13 12.5a2 2 0 0 1-.316-.025l.867-3.898A2.001 2.001 0 0 1 13 12.5M2.64 13.825 1.123 7h11.754l-1.517 6.825A1.5 1.5 0 0 1 9.896 15H4.104a1.5 1.5 0 0 1-1.464-1.175"/><path d="m4.4.8-.003.004-.014.019a4 4 0 0 0-.204.31 2 2 0 0 0-.141.267c-.026.06-.034.092-.037.103v.004a.6.6 0 0 0 .091.248c.075.133.178.272.308.445l.01.012c.118.158.26.347.37.543.112.2.22.455.22.745 0 .188-.065.368-.119.494a3 3 0 0 1-.202.388 5 5 0 0 1-.253.382l-.018.025-.005.008-.002.002A.5.5 0 0 1 3.6 4.2l.003-.004.014-.019a4 4 0 0 0 .204-.31 2 2 0 0 0 .141-.267c.026-.06.034-.092.037-.103a.6.6 0 0 0-.09-.252A4 4 0 0 0 3.6 2.8l-.01-.012a5 5 0 0 1-.37-.543A1.53 1.53 0 0 1 3 1.5c0-.188.065-.368.119-.494.059-.138.134-.274.202-.388a6 6 0 0 1 .253-.382l.025-.035A.5.5 0 0 1 4.4.8m3 0-.003.004-.014.019a4 4 0 0 0-.204.31 2 2 0 0 0-.141.267c-.026.06-.034.092-.037.103v.004a.6.6 0 0 0 .091.248c.075.133.178.272.308.445l.01.012c.118.158.26.347.37.543.112.2.22.455.22.745 0 .188-.065.368-.119.494a3 3 0 0 1-.202.388 5 5 0 0 1-.253.382l-.018.025-.005.008-.002.002A.5.5 0 0 1 6.6 4.2l.003-.004.014-.019a4 4 0 0 0 .204-.31 2 2 0 0 0 .141-.267c.026-.06.034-.092.037-.103a.6.6 0 0 0-.09-.252A4 4 0 0 0 6.6 2.8l-.01-.012a5 5 0 0 1-.37-.543A1.53 1.53 0 0 1 6 1.5c0-.188.065-.368.119-.494.059-.138.134-.274.202-.388a6 6 0 0 1 .253-.382l.025-.035A.5.5 0 0 1 7.4.8m3 0-.003.004-.014.019a4 4 0 0 0-.204.31 2 2 0 0 0-.141.267c-.026.06-.034.092-.037.103v.004a.6.6 0 0 0 .091.248c.075.133.178.272.308.445l.01.012c.118.158.26.347.37.543.112.2.22.455.22.745 0 .188-.065.368-.119.494a3 3 0 0 1-.202.388 5 5 0 0 1-.252.382l-.019.025-.005.008-.002.002A.5.5 0 0 1 9.6 4.2l.003-.004.014-.019a4 4 0 0 0 .204-.31 2 2 0 0 0 .141-.267c.026-.06.034-.092.037-.103a.6.6 0 0 0-.09-.252A4 4 0 0 0 9.6 2.8l-.01-.012a5 5 0 0 1-.37-.543A1.53 1.53 0 0 1 9 1.5c0-.188.065-.368.119-.494.059-.138.134-.274.202-.388a6 6 0 0 1 .253-.382l.025-.035A.5.5 0 0 1 10.4.8"/></symbol><symbol class="bi bi-exclamation-square" viewBox="0 0 16 16" id="exclamation-square"><path d="M14 1a1 1 0 0 1 1 1v12a1 1 0 0 1-1 1H2a1 1 0 0 1-1-1V2a1 1 0 0 1 1-1zM2 0a2 2 0 0 0-2 2v12a2 2 0 0 0 2 2h12a2 2 0 0 0 2-2V2a2 2 0 0 0-2-2z"/><path d="M7.002 11a1 1 0 1 1 2 0 1 1 0 0 1-2 0M7.1 4.995a.905.905 0 1 1 1.8 0l-.35 3.507a.552.552 0 0 1-1.1 0z"/></symbol><symbol class="bi bi-github" viewBox="0 0 16 16" id="github"><path d="M8 0C3.58 0 0 3.58 0 8c0 3.54 2.29 6.53 5.47 7.59.4.07.55-.17.55-.38 0-.19-.01-.82-.01-1.49-2.01.37-2.53-.49-2.69-.94-.09-.23-.48-.94-.82-1.13-.28-.15-.68-.52-.01-.53.63-.01 1.08.58 1.23.82.72 1.21 1.87.87 2.33.66.07-.52.28-.87.51-1.07-1.78-.2-3.64-.89-3.64-3.95 0-.87.31-1.59.82-2.15-.08-.2-.36-1.02.08-2.12 0 0 .67-.21 2.2.82.64-.18 1.32-.27 2-.27s1.36.09 2 .27c1.53-1.04 2.2-.82 2.2-.82.44 1.1.16 1.92.08 2.12.51.56.82 1.27.82 2.15 0 3.07-1.87 3.75-3.65 3.95.29.25.54.73.54 1.48 0 1.07-.01 1.93-.01 2.2 0 .21.15.46.55.38A8.01 8.01 0 0 0 16 8c0-4.42-3.58-8-8-8"/></symbol><symbol class="bi bi-info-square" viewBox="0 0 16 16" id="info-square"><path d="M14 1a1 1 0 0 1 1 1v12a1 1 0 0 1-1 1H2a1 1 0 0 1-1-1V2a1 1 0 0 1 1-1zM2 0a2 2 0 0 0-2 2v12a2 2 0 0 0 2 2h12a2 2 0 0 0 2-2V2a2 2 0 0 0-2-2z"/><path d="m8.93 6.588-2.29.287-.082.38.45.083c.294.07.352.176.288.469l-.738 3.468c-.194.897.105 1.319.808 1.319.545 0 1.178-.252 1.465-.598l.088-.416c-.2.176-.492.246-.686.246-.275 0-.375-.193-.304-.533zM9 4.5a1 1 0 1 1-2 0 1 1 0 0 1 2 0"/></symbol><symbol class="bi bi-search" viewBox="0 0 16 16" id="magnify"><path d="M11.742 10.344a6.5 6.5 0 1 0-1.397 1.398h-.001q.044.06.098.115l3.85 3.85a1 1 0 0 0 1.415-1.414l-3.85-3.85a1 1 0 0 0-.115-.1zM12 6.5a5.5 5.5 0 1 1-11 0 5.5 5.5 0 0 1 11 0"/></symbol><symbol viewBox="0 0 16 16" id="search"><path d="M3 2.5A1.5 1.5 0 0 1 4.5 1h1A1.5 1.5 0 0 1 7 2.5V5h2V2.5A1.5 1.5 0 0 1 10.5 1h1A1.5 1.5 0 0 1 13 2.5v2.382a.5.5 0 0 0 .276.447l.895.447A1.5 1.5 0 0 1 15 7.118V14.5a1.5 1.5 0 0 1-1.5 1.5h-3A1.5 1.5 0 0 1 9 14.5v-3a.5.5 0 0 1 .146-.354l.854-.853V9.5a.5.5 0 0 0-.5-.5h-3a.5.5 0 0 0-.5.5v.793l.854.853A.5.5 0 0 1 7 11.5v3A1.5 1.5 0 0 1 5.5 16h-3A1.5 1.5 0 0 1 1 14.5V7.118a1.5 1.5 0 0 1 .83-1.342l.894-.447A.5.5 0 0 0 3 4.882zM4.5 2a.5.5 0 0 0-.5.5V3h2v-.5a.5.5 0 0 0-.5-.5zM6 4H4v.882a1.5 1.5 0 0 1-.83 1.342l-.894.447A.5.5 0 0 0 2 7.118V13h4v-1.293l-.854-.853A.5.5 0 0 1 5 10.5v-1A1.5 1.5 0 0 1 6.5 8h3A1.5 1.5 0 0 1 11 9.5v1a.5.5 0 0 1-.146.354l-.854.853V13h4V7.118a.5.5 0 0 0-.276-.447l-.895-.447A1.5 1.5 0 0 1 12 4.882V4h-2v1.5a.5.5 0 0 1-.5.5h-3a.5.5 0 0 1-.5-.5zm4-1h2v-.5a.5.5 0 0 0-.5-.5h-1a.5.5 0 0 0-.5.5zm4 11h-4v.5a.5.5 0 0 0 .5.5h3a.5.5 0 0 0 .5-.5zm-8 0H2v.5a.5.5 0 0 0 .5.5h3a.5.5 0 0 0 .5-.5z"/></symbol><symbol class="bi bi-cart" viewBox="0 0 16 16" id="trolley"><path d="M0 1.5A.5.5 0 0 1 .5 1H2a.5.5 0 0 1 .485.379L2.89 3H14.5a.5.5 0 0 1 .491.592l-1.5 8A.5.5 0 0 1 13 12H4a.5.5 0 0 1-.491-.408L2.01 3.607 1.61 2H.5a.5.5 0 0 1-.5-.5M3.102 4l1.313 7h8.17l1.313-7zM5 12a2 2 0 1 0 0 4 2 2 0 0 0 0-4m7 0a2 2 0 1 0 0 4 2 2 0 0 0 0-4m-7 1a1 1 0 1 1 0 2 1 1 0 0 1 0-2m7 0a1 1 0 1 1 0 2 1 1 0 0 1 0-2"/></symbol></svg>